<svg xmlns="http://www.w3.org/2000/svg" width="400" height="640" viewBox="0 0 400 640"><rect width="100%" height="100%" fill="#DDDDDD"/><path fill="#999999" d="M95.99 307.2h4.27v26.03h-2.49q-.57 0-.96-.19t-.75-.64l-13.59-17.35q.11 1.19.11 2.2v15.98h-4.26V307.2h2.53q.31 0 .53.03.23.03.4.11t.33.23q.17.15.36.41l13.65 17.42q-.06-.63-.09-1.24-.04-.61-.04-1.14zm17.53 7.27q2.06 0 3.74.67t2.88 1.89 1.84 2.99q.65 1.76.65 3.94 0 2.2-.65 3.96-.64 1.76-1.84 3.01-1.2 1.24-2.88 1.9-1.68.67-3.74.67-2.07 0-3.76-.67-1.69-.66-2.89-1.9-1.19-1.25-1.85-3.01t-.66-3.96q0-2.18.66-3.94.66-1.77 1.85-2.99 1.2-1.22 2.89-1.89t3.76-.67m0 15.61q2.31 0 3.41-1.55 1.11-1.55 1.11-4.53 0-2.99-1.11-4.56-1.1-1.56-3.41-1.56-2.34 0-3.46 1.57-1.13 1.58-1.13 4.55t1.13 4.52q1.12 1.56 3.46 1.56m26.81-.63h4.89q1.35 0 2.27-.32.92-.33 1.47-.87t.79-1.26.24-1.53q0-.84-.27-1.52-.27-.67-.84-1.15-.58-.48-1.49-.73t-2.19-.25h-4.87zm4.12-18.5h-4.12v7.52h3.85q2.48 0 3.75-.9t1.27-2.86q0-2.04-1.15-2.9t-3.6-.86m-8.97-3.75h8.97q2.55 0 4.37.49 1.82.48 2.98 1.38t1.7 2.18.54 2.88q0 .92-.27 1.76-.27.83-.83 1.56-.57.73-1.44 1.33-.88.59-2.08 1 5.36 1.21 5.36 5.8 0 1.66-.63 3.06t-1.84 2.42q-1.2 1.02-2.97 1.59-1.76.58-4.03.58h-9.83zm31.18 7.27q2.05 0 3.74.67 1.68.67 2.88 1.89 1.19 1.22 1.84 2.99.65 1.76.65 3.94 0 2.2-.65 3.96t-1.84 3.01q-1.2 1.24-2.88 1.9-1.69.67-3.74.67-2.07 0-3.76-.67-1.69-.66-2.89-1.9-1.2-1.25-1.85-3.01-.66-1.76-.66-3.96 0-2.18.66-3.94.65-1.77 1.85-2.99t2.89-1.89 3.76-.67m0 15.61q2.3 0 3.41-1.55t1.11-4.53q0-2.99-1.11-4.56-1.11-1.56-3.41-1.56-2.34 0-3.46 1.57-1.13 1.58-1.13 4.55t1.13 4.52q1.12 1.56 3.46 1.56m20.68-15.61q2.05 0 3.74.67 1.68.67 2.88 1.89 1.19 1.22 1.84 2.99.65 1.76.65 3.94 0 2.2-.65 3.96t-1.84 3.01q-1.2 1.24-2.88 1.9-1.69.67-3.74.67-2.07 0-3.76-.67-1.69-.66-2.89-1.9-1.2-1.25-1.85-3.01-.66-1.76-.66-3.96 0-2.18.66-3.94.65-1.77 1.85-2.99t2.89-1.89 3.76-.67m0 15.61q2.31 0 3.41-1.55 1.11-1.55 1.11-4.53 0-2.99-1.11-4.56-1.1-1.56-3.41-1.56-2.34 0-3.46 1.57-1.13 1.58-1.13 4.55t1.13 4.52q1.12 1.56 3.46 1.56m12.51-23.6h4.45v15.32h.83q.45 0 .71-.12.26-.11.53-.47l4.59-5.67q.29-.38.64-.58t.91-.2h4.06l-5.74 6.86q-.61.81-1.33 1.24.38.27.68.63.29.36.56.78l6.16 8.96h-4.02q-.52 0-.9-.17-.37-.17-.63-.62l-4.71-7q-.25-.42-.52-.54-.27-.13-.81-.13h-1.01v8.46h-4.45zm46.57 20.61q.39 0 .7.31l1.91 2.07q-1.59 1.96-3.9 3-2.31 1.05-5.55 1.05-2.9 0-5.21-.99-2.32-.99-3.95-2.76-1.64-1.76-2.51-4.21-.88-2.45-.88-5.34 0-2.94.94-5.38.93-2.44 2.64-4.2 1.7-1.76 4.05-2.75 2.36-.98 5.22-.98 2.85 0 5.05.94 2.21.94 3.76 2.45l-1.62 2.25q-.15.21-.37.38-.23.16-.62.16-.27 0-.56-.16-.29-.15-.63-.37-.34-.23-.79-.5t-1.05-.49q-.59-.23-1.37-.38-.79-.15-1.81-.15-1.75 0-3.2.62t-2.49 1.8q-1.05 1.18-1.62 2.88-.58 1.7-.58 3.88 0 2.19.62 3.9t1.69 2.88q1.06 1.17 2.5 1.79t3.09.62q.99 0 1.8-.1.8-.11 1.47-.35.68-.23 1.28-.6t1.2-.91q.18-.16.37-.26.2-.1.42-.1m13.41-12.62q2.05 0 3.73.67 1.69.67 2.88 1.89 1.2 1.22 1.85 2.99.65 1.76.65 3.94 0 2.2-.65 3.96t-1.85 3.01q-1.19 1.24-2.88 1.9-1.68.67-3.73.67-2.07 0-3.76-.67-1.7-.66-2.89-1.9-1.2-1.25-1.86-3.01-.65-1.76-.65-3.96 0-2.18.65-3.94.66-1.77 1.86-2.99 1.19-1.22 2.89-1.89 1.69-.67 3.76-.67m0 15.61q2.3 0 3.41-1.55t1.11-4.53q0-2.99-1.11-4.56-1.11-1.56-3.41-1.56-2.34 0-3.47 1.57-1.12 1.58-1.12 4.55t1.12 4.52q1.13 1.56 3.47 1.56m25.65-15.32h3.51l-7.33 18.47h-4.03l-7.33-18.47h3.68q.5 0 .83.24.34.23.44.59l3.57 9.86q.29.87.5 1.7.22.82.38 1.65.18-.83.4-1.65.21-.83.52-1.7l3.63-9.86q.13-.36.45-.59.33-.24.78-.24m9.38 7.11h8.38q0-.86-.24-1.63-.24-.76-.73-1.34-.48-.57-1.23-.91-.75-.33-1.74-.33-1.92 0-3.03 1.1t-1.41 3.11m11.34 2.68h-11.43q.1 1.43.5 2.46.4 1.04 1.04 1.71.65.68 1.54 1.01t1.97.33 1.87-.25q.78-.25 1.37-.56.58-.3 1.02-.56.44-.25.86-.25.55 0 .82.42l1.28 1.62q-.74.86-1.65 1.44-.92.59-1.92.94t-2.03.5q-1.04.14-2.01.14-1.93 0-3.58-.64-1.66-.64-2.88-1.89-1.23-1.25-1.93-3.1-.7-1.84-.7-4.27 0-1.89.61-3.56.61-1.66 1.76-2.89 1.14-1.24 2.79-1.96 1.64-.72 3.71-.72 1.75 0 3.22.56 1.48.56 2.54 1.63t1.67 2.63q.6 1.56.6 3.55 0 1.01-.22 1.36-.21.35-.82.35m8.29-8.67.27 2.09q.87-1.66 2.06-2.61 1.18-.94 2.8-.94 1.28 0 2.06.56l-.29 3.33q-.09.32-.26.46-.17.13-.46.13-.27 0-.8-.09t-1.04-.09q-.74 0-1.31.22-.58.21-1.04.62-.46.4-.81.98t-.65 1.31v11.38h-4.45v-18.47h2.61q.68 0 .95.24.27.25.36.88"/></svg>